<?xml version="1.0" standalone="no"?>
<!DOCTYPE svg PUBLIC "-//W3C//DTD SVG 20010904//EN"
 "http://www.w3.org/TR/2001/REC-SVG-20010904/DTD/svg10.dtd">
<svg version="1.0" xmlns="http://www.w3.org/2000/svg"
 width="822.000000pt" height="462.000000pt" viewBox="0 0 822.000000 462.000000"
 preserveAspectRatio="xMidYMid meet">

<g transform="translate(0.000000,462.000000) scale(0.100000,-0.100000)"
fill="#000000" stroke="none">
<path d="M0 2310 l0 -2310 4110 0 4110 0 0 2310 0 2310 -4110 0 -4110 0 0
-2310z m4833 1386 c36 -27 -19 -80 -59 -58 -25 14 -47 4 -66 -28 -10 -17 -28
-32 -45 -35 -15 -4 -43 -13 -61 -21 -18 -8 -42 -14 -53 -14 -11 0 -27 -7 -35
-15 -9 -8 -27 -15 -40 -15 -14 0 -41 -11 -61 -25 -43 -29 -51 -26 -28 9 l17
25 -114 34 c-62 19 -131 39 -154 46 -31 8 -44 18 -57 46 -9 20 -17 38 -17 42
0 12 310 -9 408 -28 121 -24 153 -22 167 9 8 19 17 22 65 22 30 0 62 5 70 10
21 13 42 12 63 -4z m378 -19 c-5 -5 -31 -23 -57 -38 l-47 -27 29 -5 c81 -16
116 -17 155 -6 l44 11 -32 16 c-23 11 -32 22 -31 37 l2 23 44 -19 c24 -11 49
-16 54 -13 6 4 -2 13 -18 20 -24 10 -26 13 -8 13 11 1 53 -15 93 -34 39 -19
75 -35 79 -35 4 0 17 17 30 38 16 26 21 30 15 12 -17 -62 -12 -72 61 -112 74
-41 156 -103 156 -119 0 -5 -17 2 -37 16 -21 14 -44 25 -52 25 -8 0 -25 10
-38 22 -37 35 -26 7 17 -44 25 -29 46 -45 55 -42 14 6 64 -42 64 -61 0 -5 -5
-3 -12 5 -16 21 -127 83 -135 75 -3 -3 12 -23 33 -45 41 -42 146 -91 153 -71
2 6 29 -6 60 -26 31 -21 80 -49 108 -63 l51 -25 -46 0 c-30 0 -50 5 -58 15 -7
8 -13 11 -13 7 0 -4 -10 1 -22 13 -12 11 -28 20 -37 20 -8 0 -34 11 -58 25
-53 32 -56 20 -5 -25 l37 -33 -29 -8 c-18 -5 -35 -4 -42 2 -18 15 -42 -15 -36
-46 3 -17 17 -32 43 -46 40 -20 48 -32 28 -45 -6 -3 -33 -40 -60 -82 l-50 -76
41 -36 c22 -19 40 -40 40 -45 0 -6 -15 -17 -33 -25 -17 -8 -31 -21 -30 -28 2
-6 -4 -12 -12 -12 -8 0 -15 9 -15 20 0 21 -35 35 -67 27 -12 -3 -9 -5 10 -6
23 -1 27 -5 27 -31 0 -41 -30 -40 -71 2 -17 18 -36 33 -42 34 -7 0 -36 2 -64
2 -49 2 -53 4 -53 27 0 17 9 29 30 40 17 9 28 20 25 25 -12 19 -44 10 -68 -20
-28 -32 -47 -39 -47 -15 0 8 6 12 14 9 9 -4 18 6 25 29 10 29 20 38 64 54 l52
20 3 54 c2 29 8 59 13 66 13 15 135 83 150 83 5 0 23 10 38 21 16 12 34 18 40
15 6 -4 11 -4 11 -1 0 11 -54 50 -63 47 -5 -1 -15 3 -23 9 -8 6 -15 8 -15 3
-1 -5 -2 -13 -3 -19 -3 -25 -21 -11 -18 15 2 17 1 30 -2 30 -3 0 -22 -31 -41
-70 -25 -50 -39 -68 -50 -64 -8 4 -15 10 -15 16 0 5 -9 6 -21 3 -19 -6 -20 -4
-14 23 7 35 -8 50 -33 30 -35 -28 -58 -36 -75 -27 -17 10 -37 -14 -37 -45 0
-22 -64 -111 -68 -94 -1 8 11 44 27 81 19 43 26 69 19 73 -12 7 -12 7 -73 -98
-25 -43 -48 -78 -51 -78 -3 0 -19 8 -34 17 -40 23 -50 12 -117 -121 l-55 -111
-265 -1 c-215 0 -262 2 -249 12 15 10 16 16 6 34 -7 13 -9 35 -6 51 4 20 2 27
-7 23 -7 -2 -21 1 -30 9 -17 12 -16 15 16 56 45 57 60 105 50 155 -7 33 -3 55
26 133 l34 93 43 -25 c51 -30 54 -30 54 -6 0 10 6 34 13 52 8 19 22 55 31 82
10 26 21 47 26 47 5 0 23 -19 41 -42 l33 -41 -42 -37 c-47 -43 -52 -56 -20
-66 20 -6 20 -7 3 -17 -13 -7 -24 -6 -38 2 -12 8 -23 9 -28 4 -6 -6 52 -45
143 -99 l153 -89 -3 -42 c-2 -23 1 -51 7 -62 7 -11 7 -22 2 -25 -5 -3 -7 -15
-4 -27 5 -18 11 -15 52 29 25 27 53 51 60 54 12 3 11 11 -8 41 -24 40 -17 46
29 22 28 -15 30 -14 56 21 27 35 27 37 17 102 -6 37 -9 95 -6 130 3 39 1 62
-5 62 -6 0 -13 14 -17 30 -6 26 -20 37 -98 77 -51 26 -121 57 -157 69 l-65 23
179 -1 c128 0 175 -3 167 -11z m-2291 -5 c0 -9 -144 -227 -167 -254 -9 -10
-20 -15 -24 -12 -12 7 -4 91 10 108 7 8 13 39 14 69 l2 54 70 21 c79 23 95 26
95 14z m649 -89 c18 -66 48 -207 55 -251 l7 -44 -38 31 c-21 17 -43 31 -49 31
-7 0 -15 5 -17 10 -3 6 -4 5 -3 -2 3 -17 -12 -31 -48 -43 -60 -20 -40 -33 64
-40 55 -4 103 -11 106 -17 3 -5 21 -65 39 -134 19 -69 36 -128 39 -131 3 -3
27 11 54 31 28 20 56 34 64 31 8 -3 21 1 28 9 16 21 30 11 30 -21 0 -16 7 -27
20 -30 14 -4 24 -21 35 -62 9 -31 19 -67 23 -81 l8 -25 183 1 c143 0 184 3
191 14 6 10 12 11 22 3 7 -6 24 -13 38 -16 18 -3 14 -5 -15 -6 -22 -1 -58 -6
-80 -10 l-40 -9 38 -1 c29 -1 37 -5 37 -19 0 -29 -10 -33 -41 -16 -27 14 -29
13 -29 -5 0 -25 19 -31 93 -31 34 0 79 -3 100 -6 33 -6 37 -10 37 -35 0 -16
-3 -29 -7 -29 -47 3 -219 51 -228 64 -11 14 -40 16 -219 16 -204 0 -370 -16
-443 -42 l-33 -12 0 -83 c0 -84 -9 -100 -38 -71 -6 6 -27 11 -47 10 -30 -1
-37 3 -46 26 -36 95 -75 163 -99 170 -14 3 -129 7 -256 7 l-232 0 -21 -25
c-21 -24 -22 -24 -16 -2 5 18 2 22 -19 22 -13 0 -31 -6 -38 -12 -15 -15 -136
-18 -156 -5 -7 5 -12 20 -10 35 4 34 -16 39 -30 7 -16 -34 -17 -31 26 -61 34
-24 31 -26 -15 -7 -9 3 -14 2 -12 -3 3 -5 27 -58 55 -117 l49 -108 67 6 c77 7
81 4 92 -77 8 -55 6 -56 -60 -28 -26 11 -49 19 -51 16 -2 -2 31 -82 75 -178
l79 -173 137 -44 c75 -24 139 -41 142 -38 3 3 1 15 -5 26 -10 17 -9 20 4 15 8
-4 15 -11 15 -16 0 -6 7 -8 15 -4 8 3 15 1 15 -3 0 -5 9 -7 20 -4 11 3 27 0
35 -7 13 -11 13 -16 2 -34 -8 -12 -17 -40 -21 -63 -5 -37 -4 -43 11 -43 26 -1
66 -85 53 -111 -12 -22 -26 -24 -37 -5 -4 7 -26 25 -48 39 -22 15 -49 34 -60
42 -12 8 -42 21 -68 29 l-47 14 6 -24 c6 -23 4 -24 -19 -15 -40 15 -120 58
-142 75 -15 12 -6 11 35 -5 31 -11 50 -15 43 -8 -7 7 -13 16 -13 19 0 9 63 -1
77 -12 7 -5 13 -4 15 3 2 7 21 13 41 14 35 2 67 15 37 15 -13 0 -236 91 -274
112 -13 7 -21 6 -26 -2 -4 -7 -49 27 -126 96 -65 59 -157 141 -204 183 -46 42
-94 86 -106 99 -27 28 -36 28 -28 -2 9 -37 -15 -44 -43 -12 -12 15 -23 33 -23
40 0 7 -12 19 -27 26 l-28 12 23 9 c31 12 62 -5 55 -29 -3 -12 2 -22 11 -25
24 -9 29 9 11 42 -16 33 -43 51 -62 44 -7 -3 -13 2 -13 10 0 9 -6 17 -12 20
-7 2 -4 3 7 1 11 -1 32 3 48 9 l27 12 -24 26 c-14 15 -22 30 -19 33 20 20 -75
-10 -99 -32 -24 -20 -23 -45 4 -68 11 -10 40 -59 63 -109 79 -169 105 -226
105 -234 0 -4 20 -22 45 -41 25 -18 43 -36 40 -38 -9 -9 -145 116 -145 133 0
5 -12 24 -26 40 -15 17 -23 22 -20 12 7 -21 -2 -22 -26 0 -22 20 -23 33 -3 33
8 0 15 2 15 5 0 17 -113 154 -122 149 -7 -5 -8 -2 -3 5 4 8 -1 21 -14 32 -12
11 -21 25 -21 31 0 6 -23 45 -51 86 -36 53 -47 77 -38 82 7 5 9 18 5 36 -7 27
-7 28 7 9 9 -11 13 -23 11 -27 -2 -3 8 -19 24 -35 15 -15 46 -50 69 -78 35
-41 45 -47 55 -37 11 11 10 16 -4 26 -19 14 -25 46 -8 46 6 0 10 -5 10 -12 0
-6 9 -3 20 7 13 11 17 22 11 29 -5 6 -11 20 -13 31 -4 18 -6 17 -16 -6 -14
-34 -68 -45 -85 -17 -7 10 -18 18 -26 18 -11 0 -11 3 -1 15 10 12 15 12 39 -6
16 -12 34 -17 45 -13 16 6 16 8 -2 28 -10 11 -22 29 -25 38 -4 11 -19 18 -44
20 -31 2 -39 7 -41 26 l-4 24 91 -7 91 -8 0 26 c0 28 -1 28 -92 48 -32 7 -58
16 -58 20 0 4 -25 5 -55 2 -38 -4 -55 -2 -55 6 0 6 -7 11 -16 11 -8 0 -12 -4
-9 -10 3 -5 1 -10 -4 -10 -6 0 -11 6 -11 14 0 8 -7 17 -16 20 -25 10 -74 7
-74 -4 0 -5 5 -10 10 -10 6 0 10 -7 10 -15 0 -8 -7 -15 -15 -15 -10 0 -15 10
-15 30 0 21 5 30 16 30 9 0 38 8 65 17 36 13 49 23 49 38 1 18 1 19 11 3 5
-10 19 -18 30 -18 12 0 17 4 13 11 -4 7 0 9 14 5 11 -4 23 -3 26 3 5 7 91 8
91 1 0 -1 26 -2 58 -3 45 -2 57 1 59 13 0 8 2 20 2 27 1 7 7 18 14 25 16 16
15 28 -1 28 -8 0 -27 6 -43 14 -57 27 -71 28 -70 5 1 -15 -6 -23 -21 -25 -27
-5 -28 -1 -6 32 13 21 22 25 46 20 20 -4 27 -2 24 7 -2 6 -14 11 -27 9 -21 -2
-22 -1 -8 20 8 13 21 33 29 46 18 29 31 28 19 -2 -7 -19 -5 -28 11 -42 14 -13
16 -20 8 -31 -9 -10 -6 -13 18 -13 16 0 38 -7 50 -15 12 -8 30 -12 40 -9 15 5
14 2 -5 -14 -27 -25 -22 -40 24 -70 40 -26 56 -24 78 11 13 19 14 30 5 55 -6
18 -15 32 -20 32 -12 0 -11 -12 1 -44 8 -22 7 -26 -10 -26 -14 0 -23 11 -31
41 -13 41 -49 75 -49 44 0 -21 -29 -19 -36 3 -3 9 -10 25 -15 34 -10 20 -3 18
58 -13 43 -22 51 -19 29 13 -9 12 -16 34 -16 49 0 21 5 27 23 28 12 0 38 3 58
7 43 7 78 -18 58 -42 -8 -9 -8 -14 -1 -14 6 0 15 6 19 14 14 24 194 179 200
172 4 -3 -2 -12 -12 -20 -14 -10 -16 -20 -11 -48 5 -29 3 -37 -11 -42 -32 -12
-218 -120 -225 -131 -4 -5 -8 -13 -8 -17 0 -13 35 -9 49 5 16 16 3 -20 -34
-93 -15 -29 -24 -58 -21 -65 2 -7 34 -34 70 -59 62 -45 67 -47 115 -40 46 6
54 11 79 50 15 24 33 43 40 44 6 0 12 6 12 13 1 32 15 38 53 22 32 -13 37 -13
37 -1 0 9 -10 24 -22 36 -16 15 -19 23 -11 31 8 8 19 2 42 -22 34 -38 43 -20
11 21 -34 44 -21 70 15 30 10 -11 23 -20 28 -20 5 0 15 -8 22 -17 11 -15 15
-15 49 6 20 13 36 27 36 32 0 22 -63 129 -76 129 -8 0 -14 4 -14 8 0 17 81
122 90 117 5 -3 11 -19 15 -36 8 -36 -10 -65 -30 -49 -22 18 -28 -8 -15 -57 7
-25 19 -47 26 -50 7 -2 15 -15 18 -29 8 -31 12 -30 68 5 46 29 46 30 37 68
-14 60 -9 82 8 35 20 -56 27 -47 18 23 -5 43 -15 66 -46 105 -41 52 -47 74
-26 102 12 15 15 15 37 -3 34 -25 40 -24 40 11 0 41 22 32 91 -41 46 -49 58
-68 64 -105 6 -44 7 -45 26 -28 16 14 24 15 44 6 22 -10 25 -9 25 9 0 12 8 23
20 26 25 7 27 44 4 78 -21 33 -30 31 -43 -5 -5 -16 -13 -30 -17 -30 -3 0 -4
14 0 30 3 19 1 30 -6 30 -7 0 -9 15 -5 45 5 30 3 47 -6 52 -16 10 -141 3 -145
-8 -6 -15 -32 -10 -32 6 0 10 -16 16 -50 21 -27 4 -55 13 -61 20 -14 18 33 18
217 4 105 -9 140 -8 189 4 90 22 93 21 104 -21z m289 17 c37 -23 41 -30 12
-23 -11 3 -20 9 -20 14 0 5 -9 9 -19 9 -11 0 -23 5 -26 10 -10 17 18 11 53
-10z m-1200 -61 c-16 -10 -43 15 -33 31 5 8 12 6 26 -6 15 -13 16 -19 7 -25z
m1387 11 c-3 -5 -1 -11 5 -15 5 -3 10 -10 10 -15 0 -5 -10 1 -23 13 -13 13
-18 25 -13 29 13 8 28 0 21 -12z m45 6 c6 -8 10 -25 8 -37 -3 -19 -5 -17 -20
14 -18 37 -11 50 12 23z m-1585 -52 c23 -38 26 -52 18 -78 -7 -23 -14 -31 -33
-31 -13 0 -25 6 -27 13 -3 6 3 12 12 12 13 0 14 4 5 20 -6 11 -15 18 -20 15
-6 -4 -7 6 -4 23 7 35 -4 45 -29 27 -16 -12 -17 -18 -7 -57 7 -23 16 -48 21
-54 11 -14 1 -24 -24 -24 -10 0 -35 -16 -54 -35 -33 -33 -36 -34 -49 -18 -13
17 -20 52 -8 41 3 -4 14 2 24 12 14 14 17 28 13 54 -4 25 -2 36 6 36 19 0 41
26 41 48 0 18 30 33 82 41 3 1 18 -20 33 -45z m805 -4 c0 -27 6 -42 18 -49 16
-10 16 -10 -1 -11 -22 0 -67 47 -67 70 0 22 9 30 32 30 14 0 18 -8 18 -40z
m640 10 c0 -11 -42 -52 -48 -46 -5 6 31 55 41 56 4 0 7 -4 7 -10z m-110 -25
c0 -8 -7 -15 -15 -15 -16 0 -20 12 -8 23 11 12 23 8 23 -8z m453 -12 c-7 -2
-19 -2 -25 0 -7 3 -2 5 12 5 14 0 19 -2 13 -5z m1432 -21 c-3 -3 -11 0 -18 7
-9 10 -8 11 6 5 10 -3 15 -9 12 -12z m-3061 -7 c23 -17 18 -25 -18 -29 -17 -2
-26 2 -26 10 0 8 6 14 13 14 8 0 7 4 -3 10 -13 9 -13 10 0 10 8 -1 24 -7 34
-15z m1306 -41 c0 -17 -22 -14 -28 4 -2 7 3 12 12 12 9 0 16 -7 16 -16z m1876
-5 c19 -22 19 -22 -3 -10 -24 12 -39 31 -25 31 5 0 17 -10 28 -21z m-3226 -19
c0 -5 -17 -11 -37 -11 -24 -1 -29 -3 -15 -6 32 -6 27 -18 -8 -19 -31 -1 -34 3
-24 30 7 18 84 23 84 6z m-409 -13 c-6 -8 -8 -17 -4 -21 10 -10 -46 -64 -78
-75 -25 -9 -29 -7 -29 8 0 21 27 48 55 53 11 2 20 8 20 13 0 18 16 35 32 35
12 0 13 -3 4 -13z m3664 -25 c-3 -3 -11 0 -18 7 -9 10 -8 11 6 5 10 -3 15 -9
12 -12z m-3625 4 c0 -2 -7 -9 -15 -16 -13 -11 -14 -10 -9 4 5 14 24 23 24 12z
m258 -17 c1 -8 -10 -19 -28 -26 -35 -13 -41 0 -12 28 19 20 36 19 40 -2z m252
-83 c0 -5 -13 3 -30 19 -16 16 -30 33 -30 39 0 5 14 -3 30 -19 17 -16 30 -33
30 -39z m3213 43 c4 -16 3 -18 -9 -8 -16 13 -19 29 -5 29 5 0 11 -9 14 -21z
m-1025 -5 c-9 -9 -21 -13 -27 -10 -20 13 -11 26 16 26 25 0 26 -1 11 -16z
m-2628 -19 c0 -8 -2 -15 -4 -15 -2 0 -6 7 -10 15 -3 8 -1 15 4 15 6 0 10 -7
10 -15z m2650 5 c0 -5 -4 -10 -10 -10 -5 0 -10 5 -10 10 0 6 5 10 10 10 6 0
10 -4 10 -10z m61 -21 c17 -17 28 -33 24 -37 -4 -4 -14 2 -23 13 -10 12 -25
24 -34 28 -19 7 -25 27 -8 27 5 0 23 -14 41 -31z m1000 5 c21 -23 22 -26 5
-23 -19 4 -56 49 -39 49 5 0 20 -12 34 -26z m-3954 -7 c-8 -13 -20 -40 -25
-59 -9 -32 -8 -36 6 -32 10 3 4 -6 -12 -19 -24 -21 -32 -23 -48 -14 -15 10
-18 19 -13 46 7 38 17 51 66 80 43 26 45 26 26 -2z m1960 1 c-3 -8 -6 -5 -6 6
-1 11 2 17 5 13 3 -3 4 -12 1 -19z m-1333 -43 c-4 -8 -7 -15 -9 -15 -2 0 -5 7
-9 15 -3 9 0 15 9 15 9 0 12 -6 9 -15z m93 -11 c2 -6 -10 -8 -32 -6 -19 2 -35
8 -35 12 0 12 63 7 67 -6z m113 1 c14 -16 10 -18 -14 -9 -9 3 -16 10 -16 15 0
14 16 11 30 -6z m1050 5 c0 -5 -4 -10 -9 -10 -6 0 -13 5 -16 10 -3 6 1 10 9
10 9 0 16 -4 16 -10z m1953 -9 c-14 -10 -43 -77 -43 -101 0 -11 -4 -19 -9 -16
-11 7 -22 91 -15 111 7 18 34 20 34 3 0 -7 5 -5 11 5 6 9 15 15 21 11 6 -4 6
-9 1 -13z m-3194 -22 c-14 -8 15 -19 52 -19 34 0 38 -14 9 -30 -11 -6 -20 -16
-20 -23 0 -7 -13 -26 -28 -43 -38 -39 -74 -103 -66 -116 5 -8 -1 -9 -17 -5
-13 4 -32 7 -41 7 -25 0 -22 19 12 70 16 24 32 57 36 73 3 16 17 45 30 64 13
20 24 41 24 47 0 6 4 4 10 -4 6 -9 5 -17 -1 -21z m3396 1 c3 -5 2 -10 -4 -10
-5 0 -13 5 -16 10 -3 6 -2 10 4 10 5 0 13 -4 16 -10z m-3505 -67 c0 -29 -35
-8 -38 22 -4 30 -4 30 17 11 12 -11 21 -25 21 -33z m3360 1 c0 -5 -13 -23 -30
-39 -23 -22 -30 -25 -30 -12 0 8 5 19 11 23 8 5 8 9 -1 14 -7 4 -9 17 -5 33 7
26 8 26 31 9 13 -9 24 -22 24 -28z m197 13 c7 -5 10 -14 7 -19 -6 -10 -44 19
-44 34 0 9 14 4 37 -15z m-4235 -17 c3 -10 16 -13 106 -27 28 -5 46 -21 25
-24 -75 -8 -104 -5 -114 12 -5 11 -19 19 -29 19 -20 0 -26 11 -13 23 9 10 21
8 25 -3z m291 -26 c-6 -15 -33 -20 -33 -5 0 5 3 17 6 25 5 13 10 14 20 6 7 -7
10 -18 7 -26z m4027 12 c0 -2 -9 -2 -20 1 -11 3 -20 0 -20 -6 0 -6 -5 -11 -10
-11 -6 0 -5 8 2 19 9 15 16 17 30 10 10 -5 18 -11 18 -13z m-4328 -33 c-9 -4
-10 -8 -2 -18 16 -20 -3 -26 -39 -14 -28 10 -39 27 -26 40 2 3 21 3 42 1 21
-3 32 -7 25 -9z m4369 0 c13 -16 12 -17 -3 -4 -10 7 -18 15 -18 17 0 8 8 3 21
-13z m-38 -32 c12 -5 30 -5 39 0 13 7 26 1 51 -21 19 -16 41 -30 48 -30 20 -1
54 -28 45 -37 -14 -14 -76 -11 -76 5 0 21 -37 65 -45 52 -9 -14 -25 -12 -25 4
0 10 -10 11 -47 4 -34 -7 -57 -6 -78 3 l-30 12 38 15 c20 8 37 20 37 26 0 6 5
3 11 -7 6 -10 20 -22 32 -26z m-4414 16 c8 -11 6 -18 -11 -33 -21 -18 -21 -18
-15 0 6 16 4 17 -20 11 -30 -7 -27 1 9 21 13 6 24 12 24 13 1 1 7 -5 13 -12z
m4156 3 c-3 -5 -10 -10 -16 -10 -5 0 -9 5 -9 10 0 6 7 10 16 10 8 0 12 -4 9
-10z m-3960 -10 c3 -5 -1 -10 -10 -10 -9 0 -13 5 -10 10 3 6 8 10 10 10 2 0 7
-4 10 -10z m195 5 c0 -2 -9 -9 -20 -15 -16 -9 -20 -8 -20 5 0 8 9 15 20 15 11
0 20 -2 20 -5z m3034 -62 c-14 -38 -30 -72 -35 -77 -13 -14 -11 -1 6 41 18 42
19 57 4 47 -7 -4 -1 7 12 25 36 49 40 37 13 -36z m-3499 16 c11 -16 1 -19 -13
-3 -7 8 -8 14 -3 14 5 0 13 -5 16 -11z m142 5 c-3 -3 -12 -4 -19 -1 -8 3 -5 6
6 6 11 1 17 -2 13 -5z m4153 -5 c0 -5 4 -8 9 -5 14 9 23 -25 10 -41 -18 -21
-2 -28 26 -13 14 8 23 20 21 27 -3 7 1 13 9 13 16 0 19 -9 7 -26 -10 -16 -83
-54 -104 -54 -9 0 -20 -5 -23 -10 -4 -7 -14 -6 -28 1 -16 9 -22 9 -25 0 -2 -6
-15 -11 -28 -11 -16 0 -23 4 -18 11 3 6 -1 10 -12 9 -11 -1 -30 -2 -44 -1 -23
2 -22 4 14 22 32 17 43 19 64 9 23 -10 28 -7 66 34 41 46 56 55 56 35z m-4230
-19 c0 -5 -4 -10 -9 -10 -6 0 -13 5 -16 10 -3 6 1 10 9 10 9 0 16 -4 16 -10z
m-35 -30 c3 -5 -1 -10 -9 -10 -9 0 -16 5 -16 10 0 6 4 10 9 10 6 0 13 -4 16
-10z m-55 -19 c0 -8 -90 -21 -99 -15 -1 2 0 7 4 13 8 13 95 15 95 2z m4530 -6
c0 -8 -9 -15 -20 -15 -11 0 -20 7 -20 15 0 8 9 15 20 15 11 0 20 -7 20 -15z
m-4507 -45 c30 -29 18 -54 -27 -58 -42 -4 -63 9 -50 29 5 9 10 8 16 -7 5 -11
6 -2 2 25 -6 41 -5 43 17 36 12 -4 31 -15 42 -25z m4062 10 c-3 -5 -16 -10
-28 -9 -21 0 -21 1 -2 9 28 12 37 12 30 0z m-689 -27 c-10 -10 -19 5 -10 18 6
11 8 11 12 0 2 -7 1 -15 -2 -18z m1254 6 c0 -5 -4 -7 -10 -4 -5 3 -10 -2 -10
-13 0 -10 -9 -27 -20 -37 -20 -18 -20 -18 -14 16 4 19 12 37 18 41 16 11 36
10 36 -3z m-80 -15 c0 -8 -4 -12 -10 -9 -5 3 -10 10 -10 16 0 5 5 9 10 9 6 0
10 -7 10 -16z m-4454 -20 c1 -29 -6 -35 -27 -24 -16 9 -17 14 -6 30 14 24 32
21 33 -6z m4419 -1 c1 -16 -8 -26 -37 -40 -21 -10 -38 -21 -38 -25 0 -4 -9
-12 -20 -18 -16 -8 -18 -8 -14 4 3 8 12 17 20 20 8 3 14 19 14 35 0 49 72 72
75 24z m-4311 11 c10 -4 16 -18 16 -41 0 -30 -3 -34 -17 -28 -10 4 -26 10 -35
12 -20 6 -20 8 -12 41 6 22 20 27 48 16z m3226 -29 c-6 -15 -13 -26 -16 -23
-2 3 0 18 6 33 6 15 13 26 16 23 2 -3 0 -18 -6 -33z m1240 25 c0 -5 -4 -10
-10 -10 -5 0 -10 5 -10 10 0 6 5 10 10 10 6 0 10 -4 10 -10z m-1502 -32 l-3
-33 -90 -12 c-49 -7 -117 -16 -151 -21 -35 -6 -79 -6 -105 -1 -24 4 -48 8 -52
9 -5 0 -7 17 -5 38 3 37 3 37 53 42 28 3 119 6 203 8 l153 3 -3 -33z m455 25
c-7 -2 -19 -2 -25 0 -7 3 -2 5 12 5 14 0 19 -2 13 -5z m-293 -12 c0 -5 3 -16
6 -25 4 -11 0 -16 -13 -16 -26 0 -32 7 -26 31 5 19 33 27 33 10z m37 -13 c-3
-8 -6 -5 -6 6 -1 11 2 17 5 13 3 -3 4 -12 1 -19z m210 0 c-3 -8 -6 -5 -6 6 -1
11 2 17 5 13 3 -3 4 -12 1 -19z m98 12 c3 -5 1 -10 -4 -10 -6 0 -11 5 -11 10
0 6 2 10 4 10 3 0 8 -4 11 -10z m372 4 c-3 -3 -12 -4 -19 -1 -8 3 -5 6 6 6 11
1 17 -2 13 -5z m73 -9 c0 -8 -4 -15 -10 -15 -5 0 -10 4 -10 9 0 5 -10 12 -22
14 -17 3 -14 5 10 6 22 1 32 -3 32 -14z m71 1 c-10 -12 -8 -15 10 -18 26 -4
36 -38 11 -38 -23 1 -75 47 -67 60 3 6 18 10 32 10 21 0 23 -3 14 -14z m475
-34 c-18 -16 -18 -16 -6 6 6 13 14 21 18 18 3 -4 -2 -14 -12 -24z m-4728 6 c9
-9 12 -9 12 3 0 12 2 12 9 0 5 -8 7 -20 4 -27 -4 -11 -10 -10 -29 3 -23 15
-32 33 -16 33 4 0 13 -5 20 -12z m4332 3 c0 -12 -20 -25 -27 -18 -7 7 6 27 18
27 5 0 9 -4 9 -9z m-560 -16 c0 -16 -17 -19 -44 -9 -22 9 -10 24 20 24 15 0
24 -6 24 -15z m859 11 c-2 -2 -15 -9 -29 -16 -23 -12 -24 -12 -11 3 7 10 20
17 29 17 8 0 13 -2 11 -4z m33 -18 c-7 -7 -12 -8 -12 -2 0 14 12 26 19 19 2
-3 -1 -11 -7 -17z m-1018 1 c2 -2 7 -25 10 -51 8 -50 -7 -68 -18 -23 -4 15
-11 22 -20 19 -24 -9 -56 15 -56 42 0 23 3 25 40 21 22 -2 42 -6 44 -8z m796
-14 c0 -9 -6 -12 -15 -9 -8 4 -15 10 -15 15 0 5 7 9 15 9 8 0 15 -7 15 -15z
m-970 -4 c0 -5 -7 -14 -15 -21 -12 -10 -15 -10 -15 2 0 8 3 18 7 21 9 10 23 9
23 -2z m911 -2 c11 -5 16 -15 13 -21 -5 -8 -1 -9 12 -4 18 7 18 6 2 -10 -15
-16 -21 -16 -43 -4 -26 14 -33 30 -14 30 5 0 7 5 4 10 -8 13 1 13 26 -1z m-81
-20 c0 -6 11 -25 25 -43 23 -30 24 -35 10 -46 -13 -11 -19 -9 -36 8 -11 12
-31 22 -44 22 -16 0 -25 6 -25 15 0 18 16 20 23 3 3 -8 6 -5 6 5 1 11 -8 21
-21 25 -23 7 -21 7 55 21 4 0 7 -4 7 -10z m-3204 -25 c-8 -20 5 -75 16 -68 5
3 6 13 3 23 -6 19 19 60 31 49 4 -4 1 -14 -6 -22 -6 -9 -12 -31 -13 -50 0 -19
-4 -33 -8 -30 -4 2 -5 -15 -2 -37 5 -33 3 -41 -8 -37 -9 3 -14 19 -14 44 0 26
-4 38 -12 37 -7 -2 -13 3 -13 10 -1 6 -7 26 -16 42 -11 22 -13 24 -10 8 6 -31
-5 -33 -32 -8 -20 20 -21 24 -7 35 13 11 14 10 9 -6 -5 -15 -1 -13 21 7 28 28
71 29 61 3z m3354 1 c-7 -8 -17 -15 -22 -15 -6 0 -5 7 2 15 7 8 17 15 22 15 6
0 5 -7 -2 -15z m163 -3 c10 -5 -22 -42 -37 -42 -6 0 -2 7 8 15 17 13 18 15 3
15 -9 0 -17 7 -17 15 0 13 16 12 43 -3z m-49 -10 c9 -15 -10 -33 -28 -26 -13
5 -14 9 -5 20 13 16 25 18 33 6z m-79 -32 c-20 -22 -31 -20 -22 5 4 8 14 15
23 15 16 0 16 -2 -1 -20z m-4260 -26 c0 -16 4 -34 8 -41 8 -13 -6 -26 -17 -16
-3 3 -6 16 -6 28 0 13 -7 28 -15 35 -21 18 -19 27 7 25 17 -1 22 -8 23 -31z
m3217 19 c10 -9 18 -21 18 -27 0 -5 11 -19 24 -31 28 -24 46 -68 23 -59 -13 5
-121 -30 -142 -46 -17 -13 -175 -73 -180 -69 -2 3 5 42 17 87 l20 82 68 0 c86
0 97 4 110 46 13 39 17 40 42 17z m778 5 c25 0 65 -58 54 -76 -16 -25 -29 -24
-44 3 -7 14 -18 25 -23 25 -5 0 -16 8 -24 18 -12 15 -13 12 -8 -28 7 -55 -9
-35 -24 29 l-9 43 31 -7 c18 -4 39 -7 47 -7z m274 -32 c-16 -13 -31 -22 -34
-19 -3 3 8 15 25 28 38 31 46 23 9 -9z m-2127 -14 c8 -5 10 -21 6 -46 -4 -28
-12 -40 -31 -47 -14 -5 -27 -7 -29 -5 -7 6 27 106 35 106 4 0 12 -4 19 -8z
m1300 -39 c-16 -16 -17 -15 -17 17 0 32 1 33 17 17 16 -16 16 -18 0 -34z m863
43 c0 -3 -4 -8 -10 -11 -5 -3 -10 -1 -10 4 0 6 5 11 10 11 6 0 10 -2 10 -4z
m-570 -44 c0 -18 -18 -42 -32 -42 -4 0 -5 7 -3 15 3 8 7 22 10 30 6 21 25 19
25 -3z m535 8 c-3 -5 -13 -10 -21 -10 -8 0 -14 5 -14 10 0 6 9 10 21 10 11 0
17 -4 14 -10z m-875 -20 c0 -5 -5 -10 -11 -10 -5 0 -7 5 -4 10 3 6 8 10 11 10
2 0 4 -4 4 -10z m284 -5 c3 -8 1 -15 -4 -15 -6 0 -10 7 -10 15 0 8 2 15 4 15
2 0 6 -7 10 -15z m-3526 -17 c-6 -18 -28 -21 -28 -4 0 9 7 16 16 16 9 0 14 -5
12 -12z m3206 -4 c4 -10 1 -14 -6 -12 -15 5 -23 28 -10 28 5 0 13 -7 16 -16z
m346 -33 c0 -14 -28 -33 -40 -26 -15 10 -12 23 8 28 28 8 32 7 32 -2z m-190
-38 c0 -9 -32 -43 -40 -43 -10 0 -20 37 -12 44 8 8 52 7 52 -1z m510 -26 c0
-20 -1 -20 -16 -5 -9 9 -13 21 -9 27 10 16 25 3 25 -22z m-374 -44 c-9 -10
-17 -6 -40 19 -27 29 -28 32 -10 39 25 9 67 -38 50 -58z m-1876 17 c0 -5 -6
-10 -14 -10 -7 0 -28 -3 -45 -6 -19 -4 -31 -2 -31 4 0 11 25 18 68 21 12 0 22
-3 22 -9z m-1536 -6 c9 -3 13 -10 10 -15 -3 -5 -10 -7 -15 -4 -5 4 -9 1 -9 -5
0 -6 -4 -9 -10 -5 -5 3 -7 12 -3 20 6 17 6 17 27 9z m3173 -46 c-3 -8 -6 -5
-6 6 -1 11 2 17 5 13 3 -3 4 -12 1 -19z m-3137 -14 c0 -14 -4 -23 -10 -19 -5
3 -10 15 -10 26 0 10 5 19 10 19 6 0 10 -12 10 -26z m3190 -10 c0 -2 -5 -13
-12 -24 -11 -18 -14 -18 -30 -3 -17 15 -18 14 -18 -21 0 -46 -23 -45 -28 2 -3
25 2 33 24 45 23 12 64 13 64 1z m460 -32 c0 -9 -38 -52 -45 -52 -2 0 1 14 6
30 10 27 39 43 39 22z m-556 -58 c3 -8 2 -12 -4 -9 -6 3 -10 10 -10 16 0 14 7
11 14 -7z m116 6 c0 -12 -28 -25 -36 -17 -9 9 6 27 22 27 8 0 14 -5 14 -10z
m-950 -86 c0 -3 -10 -39 -21 -80 -21 -70 -24 -74 -55 -80 -20 -4 -34 -12 -34
-20 0 -8 -8 -17 -17 -20 -10 -3 -34 -12 -54 -21 l-36 -15 -27 -131 c-15 -73
-29 -140 -31 -149 -2 -10 1 -18 6 -18 5 0 9 -4 9 -10 0 -5 -6 -7 -14 -4 -15 6
-21 -6 -32 -68 -7 -42 -18 -48 -34 -18 -6 11 -30 46 -53 76 -39 53 -42 55 -48
32 -3 -14 -13 -36 -22 -49 -8 -13 -18 -39 -22 -56 -3 -18 -17 -41 -29 -50 -12
-10 -31 -31 -41 -46 -11 -18 -24 -26 -34 -23 -9 3 18 -25 59 -64 45 -42 68
-70 58 -70 -9 0 -25 11 -35 24 -16 22 -58 37 -172 63 -21 5 -22 4 -11 -16 13
-26 37 -56 99 -123 l44 -48 -72 0 -71 0 0 -35 c0 -19 5 -35 10 -35 6 0 10 5
10 12 0 7 5 5 13 -4 8 -11 44 -20 115 -28 99 -12 123 -22 82 -35 -22 -7 -27
-25 -7 -25 6 0 33 8 59 17 47 16 48 16 66 -5 14 -16 31 -22 63 -23 l44 -1 -53
-16 c-47 -15 -54 -21 -64 -54 -12 -41 -52 -66 -117 -75 -32 -4 -38 -2 -51 22
-19 35 -51 57 -128 85 -74 27 -76 40 -2 15 28 -9 54 -15 57 -12 11 12 -9 25
-53 36 -57 15 -98 35 -145 73 -22 18 -42 26 -52 22 -11 -4 -17 -1 -17 8 0 13
-63 72 -134 128 -18 14 -19 14 -7 -8 7 -13 11 -25 9 -27 -2 -1 -36 24 -76 56
-40 31 -68 60 -62 64 18 11 11 21 -61 99 -40 42 -70 78 -68 81 2 2 40 -25 83
-61 82 -66 104 -75 127 -48 11 13 10 18 -9 32 -16 12 -20 24 -16 42 5 25 5 25
-11 5 l-17 -20 4 20 c6 31 47 20 89 -23 42 -43 155 -142 163 -142 9 0 7 253
-2 267 -11 18 -173 123 -189 123 -8 0 -23 5 -34 10 -14 8 -17 15 -10 28 14 26
18 162 5 170 -6 4 -28 33 -48 66 -37 58 -37 58 -12 52 14 -3 37 -9 51 -12 14
-3 25 -2 25 4 0 5 -13 12 -28 15 -25 5 -29 11 -30 41 l-1 36 60 0 c64 0 119
-21 119 -45 0 -7 5 -17 12 -21 8 -5 9 2 5 24 -4 18 -2 32 3 32 5 0 10 -15 12
-32 2 -28 8 -34 31 -36 19 -2 27 1 27 12 0 13 12 16 63 16 80 0 107 -8 107
-30 0 -15 11 -20 58 -25 31 -4 64 -9 72 -12 27 -11 144 -2 155 12 5 7 53 18
105 24 151 19 143 15 136 65 l-7 43 73 10 c40 6 76 11 81 12 4 0 7 -2 7 -5z
m-1208 -56 c6 -41 -16 -50 -86 -36 -56 11 -95 37 -68 45 6 3 12 12 12 22 0 15
7 16 69 7 66 -9 69 -11 73 -38z m-672 21 c0 -6 -4 -7 -10 -4 -5 3 -10 11 -10
16 0 6 5 7 10 4 6 -3 10 -11 10 -16z m2938 -8 c-13 -17 -28 -30 -35 -30 -6 -1
-20 -12 -31 -25 -13 -18 -25 -23 -41 -19 -12 3 -21 1 -21 -6 0 -5 -7 -8 -16
-4 -10 4 -17 -1 -21 -16 -6 -23 -19 -28 -25 -10 -6 17 -48 1 -48 -17 0 -9 -6
-22 -14 -30 -8 -7 -12 -23 -9 -34 4 -14 -1 -26 -15 -36 -12 -8 -18 -21 -16
-31 3 -12 -10 -32 -35 -58 -58 -56 -53 -72 12 -39 28 14 63 36 77 47 14 12 7
3 -15 -21 -21 -23 -45 -42 -53 -42 -15 0 -75 -39 -80 -52 -8 -18 -22 -6 -18
15 2 12 -3 30 -12 40 -14 15 -13 19 2 36 11 12 15 27 11 44 -5 19 -2 28 14 37
12 6 21 20 21 31 0 39 19 59 55 59 18 0 37 5 40 10 13 21 -6 27 -46 16 -33 -9
-43 -8 -47 2 -2 6 -9 9 -15 5 -7 -3 -8 -2 -4 3 5 5 10 8 13 7 2 -1 15 9 30 22
15 14 43 27 63 31 20 3 47 9 61 14 14 4 51 13 83 20 31 6 63 18 71 26 8 8 21
12 29 9 7 -3 20 1 27 10 24 28 32 15 8 -14z m-1529 -6 c2 -11 8 -23 14 -26 23
-15 -3 -37 -48 -41 -40 -3 -50 0 -66 21 -11 13 -19 35 -19 48 0 23 3 24 57 21
49 -3 58 -6 62 -23z m971 13 c0 -6 -24 -35 -53 -65 -38 -37 -62 -53 -80 -53
-33 0 -34 7 -4 21 23 10 15 9 -95 -8 -34 -5 -38 -3 -38 16 0 12 6 21 14 21 8
0 16 10 18 23 3 20 11 23 88 33 47 6 94 14 105 17 34 8 45 7 45 -5z m-2320
-61 c0 -5 -4 -5 -10 -2 -5 3 -10 14 -10 23 0 15 2 15 10 2 5 -8 10 -19 10 -23z
m2036 -28 c9 -15 -34 -48 -62 -49 -12 0 -34 7 -50 15 -19 10 -30 11 -35 4 -5
-8 -8 -8 -13 -1 -8 14 64 35 136 41 9 0 20 -4 24 -10z m435 -32 c-7 -19 -25
-48 -40 -64 -16 -17 -30 -36 -33 -43 -3 -10 -9 -10 -22 -3 -15 8 -12 13 24 37
23 15 39 30 37 33 -3 3 -29 0 -57 -6 -82 -18 -100 -15 -100 14 0 29 25 45 72
46 18 0 53 6 78 13 25 6 47 11 48 10 2 -2 -1 -18 -7 -37z m-220 -28 c-9 -22
-10 -22 -10 -3 -1 11 2 24 6 27 12 12 14 0 4 -24z m-21 12 c0 -20 -20 -61 -29
-61 -16 0 -18 34 -3 53 16 19 32 23 32 8z m-2260 -16 c7 -8 8 -15 2 -15 -5 0
-15 7 -22 15 -7 8 -8 15 -2 15 5 0 15 -7 22 -15z m2829 -35 c-47 -42 -75 -54
-43 -19 17 19 73 59 83 59 2 0 -16 -18 -40 -40z m-669 -30 c-45 -54 -54 -59
-64 -34 -9 24 -7 31 12 38 9 4 33 16 52 26 19 11 37 20 38 20 2 0 -15 -22 -38
-50z m-2124 32 c-2 -4 23 -19 57 -32 74 -29 117 -58 177 -122 25 -27 49 -48
54 -48 12 0 56 -41 56 -52 0 -20 -33 -4 -121 59 -175 124 -261 203 -223 203 3
0 3 -4 0 -8z m1980 -27 c4 -18 13 -25 29 -25 17 0 26 -8 34 -30 10 -29 7 -34
-56 -101 -41 -43 -72 -68 -80 -64 -8 2 -23 0 -33 -5 -22 -12 -37 7 -42 56 -3
27 -1 29 28 26 18 -2 36 3 43 12 11 12 6 17 -28 27 -51 15 -54 39 -6 62 19 9
35 21 35 27 0 9 47 39 62 40 4 0 10 -11 14 -25z m-1766 -1 c0 -2 -7 -4 -15 -4
-8 0 -15 4 -15 10 0 5 7 7 15 4 8 -4 15 -8 15 -10z m1430 -8 c0 -8 -4 -18 -10
-21 -5 -3 -10 3 -10 14 0 12 5 21 10 21 6 0 10 -6 10 -14z m-1476 -35 c-2 -3
-12 3 -22 13 -16 17 -16 18 5 5 12 -7 20 -15 17 -18z m156 -44 c17 -15 38 -27
46 -27 8 0 14 -9 14 -20 0 -11 -2 -20 -5 -20 -2 0 -48 23 -102 51 l-98 52 56
-5 c43 -3 65 -11 89 -31z m1955 -115 c0 -35 -4 -52 -12 -52 -7 0 -13 -4 -13
-9 0 -5 -9 -13 -21 -16 -11 -4 -24 -18 -29 -31 -5 -13 -14 -24 -20 -24 -5 0
-10 -5 -10 -11 0 -22 -72 -97 -115 -120 -36 -19 -45 -28 -41 -44 5 -23 -100
-168 -124 -172 -8 -2 -24 4 -34 12 -18 14 -18 17 -2 73 9 32 16 64 16 70 0 7
-27 33 -60 59 -55 42 -59 48 -45 63 25 28 17 32 -50 25 -70 -8 -69 -8 -59 45
6 27 16 36 60 57 30 13 54 29 54 34 0 5 -16 17 -35 26 -19 9 -35 19 -35 23 0
7 60 43 65 38 9 -10 45 -84 45 -94 0 -6 10 -18 23 -27 18 -12 20 -18 10 -28
-7 -7 -13 -20 -13 -29 1 -13 3 -12 14 3 12 16 16 16 42 2 32 -16 57 -4 36 17
-7 7 -12 23 -12 38 1 23 2 24 14 7 12 -16 14 -16 20 -2 5 13 10 14 27 5 15 -8
29 -8 51 -1 17 6 40 11 51 11 20 0 20 0 1 -21 -18 -20 -18 -21 1 -35 26 -19
26 -19 59 27 16 23 34 38 41 35 7 -2 21 1 31 9 16 11 16 17 6 39 -15 35 -15
39 2 33 8 -3 20 1 27 9 21 26 34 9 34 -44z m151 19 l24 -19 -29 -32 c-18 -21
-33 -30 -41 -25 -9 6 -9 9 1 16 11 7 10 9 -4 9 -14 0 -16 5 -11 28 12 49 22
53 60 23z m-816 -10 c-5 -11 -8 -26 -5 -33 7 -18 -19 -53 -33 -44 -7 4 -12 27
-12 52 0 42 1 44 30 44 27 0 30 -2 20 -19z m900 -25 c0 -9 -262 -234 -619
-535 -32 -26 -48 -36 -40 -22 8 12 65 65 126 117 94 80 119 107 150 165 21 39
40 64 44 58 4 -7 12 -8 18 -5 15 10 14 -7 -1 -24 -21 -23 18 7 117 91 50 42
108 87 130 101 22 14 46 33 54 42 13 16 21 20 21 12z m-1807 -21 c8 -8 17 -12
20 -9 3 3 3 -3 1 -13 -6 -23 -44 -25 -60 -3 -25 31 10 54 39 25z m-123 -15 c8
-5 11 -12 7 -16 -4 -4 -15 0 -24 9 -18 18 -8 23 17 7z m1783 -18 c14 -6 7 -17
-45 -69 -35 -34 -75 -65 -89 -68 -26 -6 -26 -6 -19 33 13 72 94 127 153 104z
m-1763 -53 c0 -6 -4 -7 -10 -4 -5 3 -10 11 -10 16 0 6 5 7 10 4 6 -3 10 -11
10 -16z m179 -13 c5 -13 16 -26 25 -29 8 -3 19 -14 25 -25 9 -17 6 -19 -19
-20 -27 -1 -29 2 -24 23 5 20 3 23 -15 18 -18 -5 -21 -1 -21 26 0 37 17 41 29
7z m-303 -11 c21 -9 34 -20 31 -27 -2 -7 -10 -12 -16 -10 -16 3 -14 -8 6 -30
9 -10 14 -20 11 -23 -7 -7 -98 74 -98 86 0 6 5 7 10 4 6 -3 10 -1 10 4 0 14 4
14 46 -4z m905 -28 c-13 -13 -15 1 -4 30 7 17 8 17 11 -1 2 -10 -1 -23 -7 -29z
m-704 11 c26 -24 30 -48 9 -48 -21 0 -64 42 -59 58 7 18 24 15 50 -10z m921
-93 c17 -63 15 -68 -13 -48 -18 14 -24 27 -25 56 0 52 23 48 38 -8z m137 -172
c11 -60 20 -114 20 -122 0 -9 -29 -20 -90 -32 -49 -10 -93 -19 -97 -19 -4 0
26 63 65 140 40 77 74 140 77 140 3 0 14 -48 25 -107z m-191 14 c17 -12 17
-17 4 -62 -11 -39 -18 -49 -36 -50 -30 -2 -49 39 -30 63 11 12 11 16 0 20 -9
3 -6 10 9 23 26 23 30 23 53 6z m-9 -396 c-27 -10 -58 -22 -69 -26 -14 -6 -17
-4 -14 11 2 14 15 21 48 25 79 11 86 9 35 -10z m-84 -59 c12 -6 8 -14 -22 -42
l-38 -36 -12 23 c-10 19 -9 26 6 43 18 20 38 24 66 12z"/>
<path d="M5247 3463 c-4 -3 -7 -11 -7 -17 0 -6 5 -5 12 2 6 6 9 14 7 17 -3 3
-9 2 -12 -2z"/>
<path d="M5257 3275 c-14 -19 -15 -25 -4 -25 21 0 51 26 43 38 -10 17 -19 14
-39 -13z"/>
<path d="M5557 3253 c-4 -3 -7 -11 -7 -17 0 -6 5 -5 12 2 6 6 9 14 7 17 -3 3
-9 2 -12 -2z"/>
<path d="M4560 2935 c0 -42 2 -45 26 -45 22 0 24 3 18 23 -25 81 -44 91 -44
22z"/>
<path d="M3480 3394 c0 -14 4 -23 9 -20 5 3 7 15 4 26 -7 28 -13 25 -13 -6z"/>
<path d="M3211 3296 c-11 -13 -10 -17 3 -22 22 -8 30 1 19 21 -9 15 -11 15
-22 1z"/>
<path d="M3270 3289 c7 -11 14 -18 17 -15 8 8 -5 36 -17 36 -7 0 -7 -6 0 -21z"/>
<path d="M3220 3250 c0 -5 5 -10 11 -10 5 0 7 5 4 10 -3 6 -8 10 -11 10 -2 0
-4 -4 -4 -10z"/>
<path d="M3310 3214 c0 -9 18 -93 41 -186 l41 -170 42 6 c22 3 67 8 99 12 31
3 57 8 57 10 0 4 -97 124 -232 287 -28 34 -48 51 -48 41z"/>
<path d="M2270 3060 c0 -5 5 -10 10 -10 6 0 10 5 10 10 0 6 -4 10 -10 10 -5 0
-10 -4 -10 -10z"/>
<path d="M2274 3005 c11 -8 22 -12 25 -9 6 6 -19 24 -34 24 -5 -1 -1 -7 9 -15z"/>
<path d="M2770 2992 c0 -7 22 -26 84 -71 19 -14 19 -14 2 15 -17 27 -86 73
-86 56z"/>
<path d="M2000 2940 c0 -5 5 -10 10 -10 6 0 10 5 10 10 0 6 -4 10 -10 10 -5 0
-10 -4 -10 -10z"/>
<path d="M2535 2810 c-3 -5 -2 -10 4 -10 5 0 13 5 16 10 3 6 2 10 -4 10 -5 0
-13 -4 -16 -10z"/>
<path d="M2795 2056 c17 -15 32 -21 34 -15 4 14 -8 25 -39 33 -24 7 -24 6 5
-18z"/>
<path d="M2391 3429 c-14 -40 -14 -39 3 -39 9 0 14 12 14 35 0 43 -3 44 -17 4z"/>
<path d="M6018 2939 c-21 -11 -38 -24 -38 -29 0 -10 66 26 76 41 7 12 5 11
-38 -12z"/>
<path d="M4197 2013 c-14 -13 -6 -33 13 -33 22 0 23 1 14 24 -7 17 -16 20 -27
9z"/>
<path d="M3647 1969 c-9 -6 -22 -7 -27 -4 -6 4 -10 -10 -10 -35 l0 -42 48 3
c32 2 47 0 46 -9 -1 -7 -2 -21 -2 -31 -2 -19 -51 -51 -79 -51 -9 0 -13 -15
-13 -51 0 -41 3 -49 13 -41 14 12 57 5 57 -9 0 -14 -24 -53 -37 -62 -28 -17
-13 -53 36 -90 60 -46 76 -48 67 -6 -3 17 -6 47 -6 66 0 32 -2 35 -25 29 -14
-4 -25 -3 -25 0 0 4 11 17 25 30 19 18 25 33 25 67 0 23 5 48 11 54 8 8 8 13
0 17 -20 13 -11 32 22 45 17 8 61 23 97 35 57 19 65 25 65 46 0 21 -6 26 -31
28 -18 2 -38 -3 -46 -12 -22 -21 -105 -19 -121 3 -15 22 -66 33 -90 20z"/>
<path d="M4000 1873 c-19 -9 -38 -17 -42 -17 -17 -2 -17 -17 2 -61 16 -36 24
-45 32 -37 8 8 15 9 25 1 16 -14 30 -4 69 52 l28 41 -23 19 c-28 23 -45 23
-91 2z"/>
<path d="M3506 1811 c-4 -7 -5 -15 -2 -18 9 -9 19 4 14 18 -4 11 -6 11 -12 0z"/>
<path d="M3730 1155 c7 -8 16 -15 21 -15 5 0 6 7 3 15 -4 8 -13 15 -21 15 -13
0 -13 -3 -3 -15z"/>
<path d="M4573 1839 c-32 -21 -36 -39 -7 -39 8 0 14 -4 14 -10 0 -14 13 -13
35 3 13 10 16 21 11 40 -8 32 -12 33 -53 6z"/>
<path d="M4790 1399 c0 -5 5 -7 10 -4 6 3 10 8 10 11 0 2 -4 4 -10 4 -5 0 -10
-5 -10 -11z"/>
</g>
</svg>
