<?xml version="1.0" standalone="no"?>
<!DOCTYPE svg PUBLIC "-//W3C//DTD SVG 20010904//EN"
 "http://www.w3.org/TR/2001/REC-SVG-20010904/DTD/svg10.dtd">
<svg version="1.0" xmlns="http://www.w3.org/2000/svg"
 width="1000.000000pt" height="1000.000000pt" viewBox="0 0 1000.000000 1000.000000"
 preserveAspectRatio="xMidYMid meet">
<metadata>
Created by potrace 1.15, written by Peter Selinger 2001-2017
</metadata>
<g transform="translate(0.000000,1000.000000) scale(0.100000,-0.100000)"
fill="#000000" stroke="none">
<path d="M4240 5904 c-6 -14 -10 -31 -10 -39 0 -8 -4 -16 -9 -19 -7 -5 -86 27
-153 62 -4 2 -29 -24 -55 -58 -52 -68 -63 -110 -28 -110 12 0 25 -4 30 -9 6
-5 45 -21 88 -37 86 -30 97 -27 97 29 0 15 5 27 12 27 11 0 75 -44 93 -64 14
-17 125 -46 125 -33 0 5 -13 32 -30 58 -16 27 -32 61 -36 76 -13 53 -52 119
-79 131 -34 16 -34 16 -45 -14z"/>
<path d="M5220 5672 c-1 -9 -9 -35 -20 -57 -30 -62 -25 -193 6 -144 3 6 15 9
25 6 11 -3 17 -1 13 4 -3 5 4 9 15 9 12 0 21 -6 21 -12 0 -7 11 -18 25 -25 25
-11 26 -9 55 54 17 36 30 69 30 73 0 3 -15 14 -32 23 -18 9 -57 32 -85 52 -44
29 -53 32 -53 17z"/>
<path d="M5588 5101 c-82 -35 -105 -55 -88 -76 13 -16 170 -68 178 -60 3 3 11
0 19 -7 21 -17 24 -5 12 51 -9 43 -14 51 -27 45 -65 -27 -73 -28 -90 -18 -26
17 -28 44 -2 44 12 0 19 4 16 9 -4 5 12 12 34 16 22 4 40 11 40 16 0 15 -21
10 -92 -20z"/>
<path d="M8651 5110 c0 -8 3 -32 8 -53 12 -52 -1 -57 -153 -57 -69 0 -126 -4
-126 -8 0 -5 31 -14 69 -21 38 -7 77 -18 87 -25 17 -13 16 -14 -6 -21 -21 -7
-13 -12 55 -34 74 -24 80 -28 80 -53 1 -36 9 -42 35 -28 51 27 75 119 50 186
-14 36 -70 105 -80 99 -5 -3 -11 3 -13 12 -3 13 -5 13 -6 3z"/>
<path d="M1336 5079 c-48 -42 -64 -74 -66 -134 -3 -72 -3 -71 31 -110 40 -45
59 -46 59 -2 0 36 9 41 110 67 40 11 43 13 26 25 -17 13 -17 14 1 23 10 5 45
15 78 22 33 7 65 15 70 19 6 3 -54 8 -132 11 -78 3 -145 9 -149 13 -4 4 -3 27
3 50 6 23 10 43 8 45 -1 2 -19 -11 -39 -29z"/>
<path d="M4336 5052 c-5 -9 0 -41 20 -135 5 -21 11 -26 23 -21 9 4 35 12 58
18 83 21 58 106 -39 129 -14 4 -33 9 -41 13 -8 3 -18 1 -21 -4z"/>
<path d="M4945 4918 c-60 -98 -60 -98 -45 -98 6 0 28 -11 48 -25 21 -14 51
-25 70 -25 33 0 33 0 27 38 -4 20 -11 51 -15 67 -5 17 -12 51 -16 78 -3 26 -9
47 -13 47 -3 0 -28 -37 -56 -82z"/>
<path d="M5252 4813 c2 -5 43 -89 91 -187 48 -98 87 -183 87 -187 0 -15 28
-10 34 6 3 8 -1 29 -8 47 -7 18 -16 49 -20 69 -5 30 -2 40 20 62 l26 26 -63
31 c-45 23 -64 28 -69 20 -5 -8 -21 12 -45 54 -20 36 -41 66 -47 66 -5 0 -8
-3 -6 -7z"/>
<path d="M1423 4707 c13 -18 50 -46 83 -64 112 -61 135 -63 741 -64 301 -1
562 -4 578 -8 26 -5 21 -8 -39 -20 -71 -14 -179 -54 -205 -74 -33 -28 134 -28
474 -2 105 8 276 19 380 26 330 20 340 21 343 45 6 39 -32 50 -188 59 -80 4
-167 9 -195 11 -27 3 -147 7 -265 9 -118 2 -253 7 -300 10 -47 3 -152 8 -235
10 -82 3 -213 9 -290 14 -77 5 -266 7 -419 5 -159 -2 -299 1 -325 7 -53 11
-121 39 -121 49 0 4 -9 10 -21 13 -20 5 -19 4 4 -26z"/>
<path d="M8598 4728 c-63 -58 -132 -68 -455 -64 -153 2 -341 0 -418 -5 -275
-18 -874 -36 -902 -27 -12 4 -35 3 -52 -2 -17 -5 -79 -12 -138 -15 -60 -4
-119 -8 -133 -10 -14 -2 -67 -4 -117 -4 -80 -1 -96 -4 -114 -22 -11 -11 -19
-28 -17 -37 3 -15 23 -18 148 -23 212 -9 436 -20 599 -28 78 -5 155 -7 170 -6
14 1 52 3 84 3 31 1 57 6 57 10 0 8 -33 24 -108 53 -13 5 -33 10 -45 10 -12 1
-2 5 23 10 25 4 294 8 599 8 477 1 564 3 620 17 108 27 182 71 211 123 12 24
8 27 -12 9z"/>
<path d="M4720 4572 c0 -4 6 -14 13 -21 10 -10 8 -16 -11 -31 -12 -10 -21 -25
-20 -32 2 -9 -7 -12 -31 -10 -43 3 -41 1 59 -59 74 -43 80 -46 79 -26 -1 12
-1 31 0 42 2 20 2 20 16 1 14 -19 15 -19 15 7 0 15 -4 27 -10 27 -5 0 -12 12
-16 28 -3 15 -10 39 -16 54 -9 24 -12 25 -30 15 -16 -9 -22 -9 -25 1 -5 13
-23 17 -23 4z"/>
<path d="M5117 4533 c-4 -3 -7 -17 -7 -30 0 -20 -3 -23 -27 -17 -16 4 -32 13
-36 21 -14 23 -56 -36 -50 -70 4 -20 -1 -35 -15 -50 -11 -12 -24 -35 -28 -51
-6 -24 -4 -28 12 -23 11 3 56 15 102 27 l82 23 0 41 c0 23 -7 53 -14 69 -11
20 -12 27 -3 27 7 0 13 9 14 20 2 19 -16 27 -30 13z"/>
<path d="M5640 4370 c0 -6 -11 -8 -25 -4 -14 3 -25 3 -25 0 0 -13 50 -105 60
-111 5 -3 10 -14 10 -23 0 -9 7 -36 17 -60 12 -33 26 -48 56 -63 21 -11 40
-19 42 -17 3 3 16 62 30 138 4 20 -4 32 -43 63 -65 53 -122 88 -122 77z"/>
<path d="M5827 4313 c-5 -27 -2 -39 10 -48 20 -15 25 -40 13 -71 -7 -18 -5
-24 8 -28 9 -3 20 -5 24 -3 3 1 17 -7 30 -19 39 -35 44 -35 76 5 l31 39 -17
41 c-12 30 -22 40 -34 37 -12 -3 -15 2 -12 19 4 21 -3 26 -51 44 -31 12 -59
21 -64 21 -5 0 -11 -16 -14 -37z"/>
<path d="M4840 4273 c-20 -5 -77 -91 -82 -125 -3 -15 -1 -25 3 -22 5 3 9 -2 9
-10 0 -8 8 -17 18 -19 13 -4 12 -5 -5 -6 -12 0 -24 5 -26 12 -8 17 -6 -162 1
-263 4 -47 11 -84 16 -83 6 1 41 79 78 175 66 169 68 174 58 223 -26 125 -29
130 -70 118z"/>
<path d="M5119 3537 c-15 -19 -28 -22 -102 -25 -65 -3 -93 0 -121 13 -31 15
-40 15 -77 3 -24 -8 -44 -18 -46 -24 -5 -17 87 -54 165 -65 62 -9 205 -8 320
3 22 2 12 29 -18 46 -31 18 -39 37 -17 45 11 4 -56 27 -78 27 -5 -1 -17 -11
-26 -23z"/>
</g>
</svg>
